<svg xmlns="http://www.w3.org/2000/svg" width="600" height="600" viewBox="0 0 600 600" role="img" aria-label="Ilustrasi keripik singkong balado dalam kemasan">
  <defs>
    <g id="keping">
      <ellipse rx="48" ry="31" fill="#f4c653"/>
      <ellipse rx="48" ry="31" fill="none" stroke="#dc9f2f" stroke-width="3"/>
      <path d="M-30-8q14-12 30 0t30 0" fill="none" stroke="#f9dd8c" stroke-width="5" stroke-linecap="round"/>
      <circle cx="-16" cy="10" r="3.5" fill="#d9432f"/><circle cx="8" cy="14" r="3" fill="#d9432f"/>
      <circle cx="24" cy="-12" r="3" fill="#d9432f"/><circle cx="-26" cy="-10" r="2.5" fill="#d9432f"/>
    </g>
  </defs>
  <rect width="600" height="600" fill="#fde6d6"/>
  <g transform="translate(300 318) scale(1.12) translate(-300 -318)">
  <circle cx="300" cy="310" r="215" fill="#f9d3bb"/>
  <ellipse cx="300" cy="500" rx="185" ry="20" fill="#7a2a14" opacity="0.16"/>
  <rect x="190" y="124" width="220" height="34" rx="4" fill="#b83222"/>
  <line x1="196" y1="141" x2="404" y2="141" stroke="#8f2418" stroke-width="22" stroke-dasharray="3 9"/>
  <rect x="190" y="452" width="220" height="34" rx="4" fill="#b83222"/>
  <line x1="196" y1="469" x2="404" y2="469" stroke="#8f2418" stroke-width="22" stroke-dasharray="3 9"/>
  <path d="M190 154h220q16 150 0 302H190q-16-152 0-302z" fill="#d9432f"/>
  <path d="M204 176q-9 128 0 258" fill="none" stroke="#fff" stroke-opacity="0.28" stroke-width="10" stroke-linecap="round"/>
  <ellipse cx="300" cy="296" rx="90" ry="66" fill="#ffd45c"/>
  <ellipse cx="300" cy="296" rx="78" ry="55" fill="none" stroke="#f0a92e" stroke-width="3" stroke-dasharray="5 7"/>
  <text x="300" y="298" font-family="Arial, Helvetica, sans-serif" text-anchor="middle" font-size="32" font-weight="800" fill="#b83222">Balado</text>
  <text x="300" y="323" font-family="Arial, Helvetica, sans-serif" text-anchor="middle" font-size="15" font-weight="700" fill="#7a2a14">keripik singkong</text>
  <g transform="translate(300 404) rotate(-14)">
    <path d="M-34 0q30-22 68-4q-32 22-68 4z" fill="#ffd45c"/>
    <path d="M34-4q8-8 14-3" fill="none" stroke="#ffd45c" stroke-width="5" stroke-linecap="round"/>
  </g>
  <use href="#keping" transform="translate(128 474) rotate(-16)"/>
  <use href="#keping" transform="translate(468 480) rotate(18)"/>
  <use href="#keping" transform="translate(430 440) rotate(-32) scale(0.82)"/>
  <use href="#keping" transform="translate(190 506) rotate(8) scale(0.78)"/>
  </g>
</svg>
